<svg width="182" height="50" viewBox="0 0 182 50" fill="none" xmlns="http://www.w3.org/2000/svg">
<g clip-path="url(#clip0_38_140)">
<path d="M32.9149 4.03955L22.6044 10.006H22.5631L17.1909 19.9916V30.8473L22.0259 27.9055C22.5631 27.5947 22.8937 27.0354 22.8937 26.4139V16.7598L31.8611 11.5805C32.5223 11.1869 32.9355 10.4825 32.9355 9.716L32.9149 4.03955Z" fill="url(#paint0_linear_38_140)"/>
<path d="M10.3104 10.006L0 4.03955V4.06027V9.716C0 10.4825 0.413244 11.1869 1.07443 11.5805L10.0418 16.7598V26.3932C10.0418 27.0147 10.3724 27.574 10.9096 27.8848L15.7446 30.8266V20.0745L10.3104 10.006Z" fill="url(#paint1_linear_38_140)"/>
<path d="M21.9434 8.78396L32.4812 3.02464L27.5636 0.248569C27.047 -0.062185 26.4065 -0.082902 25.8693 0.207136L16.468 5.13777L7.10798 0.455739C6.48811 0.144985 5.76493 0.144985 5.14506 0.476456L0.434082 2.96249L10.5379 8.78396H21.9434Z" fill="url(#paint2_linear_38_140)"/>
</g>
<path d="M45.0321 18.5091L38.8247 8.68596H42.9716L46.6548 14.7645H46.8608L50.4153 8.68596H54.6136L48.5093 18.5091V27.0498H45.0321V18.5091Z" fill="white"/>
<path d="M55.3266 17.6114H64.0581V20.5865H55.3266V17.6114Z" fill="white"/>
<path d="M67.3594 8.68596H73.5926C75.0522 8.68596 76.3657 8.90824 77.5334 9.3528C78.701 9.79736 79.697 10.43 80.5212 11.2507C81.3454 12.0544 81.9722 13.0204 82.4014 14.1489C82.8479 15.2774 83.0711 16.5171 83.0711 17.8679C83.0711 19.2357 82.8479 20.4839 82.4014 21.6124C81.9722 22.7409 81.3454 23.707 80.5212 24.5106C79.697 25.3143 78.701 25.9384 77.5334 26.3829C76.3657 26.8275 75.0522 27.0498 73.5926 27.0498H67.3594V8.68596ZM73.4381 23.7669C74.4512 23.7669 75.3441 23.6301 76.1168 23.3565C76.8895 23.0658 77.5334 22.664 78.0485 22.151C78.5637 21.6381 78.95 21.0225 79.2076 20.3044C79.4652 19.5692 79.5939 18.757 79.5939 17.8679C79.5939 16.9787 79.4652 16.1751 79.2076 15.457C78.95 14.7217 78.5637 14.0976 78.0485 13.5847C77.5334 13.0717 76.8895 12.6785 76.1168 12.4049C75.3441 12.1142 74.4512 11.9689 73.4381 11.9689H70.8366V23.7669H73.4381Z" fill="white"/>
<path d="M87.3403 12.6614C87.0484 12.6614 86.7651 12.6101 86.4903 12.5075C86.2328 12.3878 86.0009 12.2339 85.7949 12.0458C85.606 11.8406 85.4515 11.6098 85.3313 11.3533C85.2282 11.0969 85.1767 10.8147 85.1767 10.507C85.1767 10.1992 85.2282 9.91705 85.3313 9.66058C85.4515 9.4041 85.606 9.18182 85.7949 8.99373C86.0009 8.78855 86.2328 8.63466 86.4903 8.53207C86.7651 8.41238 87.0484 8.35254 87.3403 8.35254C87.9413 8.35254 88.4564 8.56627 88.8857 8.99373C89.315 9.4041 89.5296 9.9085 89.5296 10.507C89.5296 11.1054 89.315 11.6184 88.8857 12.0458C88.4564 12.4562 87.9413 12.6614 87.3403 12.6614ZM85.6661 27.0498V14.4824H89.0403V27.0498H85.6661Z" fill="white"/>
<path d="M97.8209 33C96.928 33 96.1296 32.8804 95.4255 32.641C94.7387 32.4187 94.1377 32.1195 93.6226 31.7433C93.1074 31.3842 92.6781 30.9824 92.3347 30.5379C91.9913 30.0933 91.7423 29.6487 91.5878 29.2042L94.8074 27.9218C95.0478 28.5886 95.4427 29.1016 95.9922 29.4607C96.5417 29.8368 97.1512 30.0249 97.8209 30.0249C98.8855 30.0249 99.7269 29.6915 100.345 29.0246C100.963 28.3749 101.272 27.4601 101.272 26.2803V25.4083H101.066C100.671 25.9555 100.148 26.3915 99.4951 26.7163C98.8598 27.0241 98.1042 27.178 97.2285 27.178C96.473 27.178 95.7346 27.0241 95.0134 26.7163C94.3094 26.4086 93.6826 25.9726 93.1332 25.4083C92.5837 24.827 92.1372 24.1345 91.7938 23.3308C91.4504 22.5272 91.2787 21.6295 91.2787 20.6378C91.2787 19.6461 91.4504 18.7484 91.7938 17.9448C92.1372 17.1241 92.5837 16.4316 93.1332 15.8673C93.6826 15.286 94.3094 14.8414 95.0134 14.5337C95.7346 14.2259 96.473 14.072 97.2285 14.072C98.1042 14.072 98.8598 14.2344 99.4951 14.5593C100.148 14.8671 100.671 15.2945 101.066 15.8417H101.272V14.4824H104.492V26.1521C104.492 27.2122 104.329 28.1612 104.003 28.999C103.676 29.8539 103.221 30.5721 102.637 31.1534C102.054 31.7519 101.35 32.205 100.525 32.5127C99.7183 32.8376 98.8168 33 97.8209 33ZM97.9497 24.1516C98.3618 24.1516 98.7653 24.0746 99.1603 23.9207C99.5724 23.7669 99.933 23.5446 100.242 23.2539C100.551 22.9461 100.8 22.5785 100.989 22.151C101.178 21.7065 101.272 21.2021 101.272 20.6378C101.272 20.0736 101.178 19.5692 100.989 19.1246C100.8 18.68 100.551 18.3124 100.242 18.0218C99.933 17.714 99.5724 17.4831 99.1603 17.3293C98.7653 17.1754 98.3618 17.0984 97.9497 17.0984C97.5376 17.0984 97.1341 17.1754 96.7391 17.3293C96.3442 17.4831 95.9922 17.714 95.6831 18.0218C95.374 18.3295 95.125 18.7057 94.9361 19.1503C94.7473 19.5777 94.6528 20.0736 94.6528 20.6378C94.6528 21.2021 94.7473 21.7065 94.9361 22.151C95.125 22.5785 95.374 22.9461 95.6831 23.2539C95.9922 23.5446 96.3442 23.7669 96.7391 23.9207C97.1341 24.0746 97.5376 24.1516 97.9497 24.1516Z" fill="white"/>
<path d="M109.249 12.6614C108.957 12.6614 108.673 12.6101 108.399 12.5075C108.141 12.3878 107.909 12.2339 107.703 12.0458C107.514 11.8406 107.36 11.6098 107.24 11.3533C107.137 11.0969 107.085 10.8147 107.085 10.507C107.085 10.1992 107.137 9.91705 107.24 9.66058C107.36 9.4041 107.514 9.18182 107.703 8.99373C107.909 8.78855 108.141 8.63466 108.399 8.53207C108.673 8.41238 108.957 8.35254 109.249 8.35254C109.85 8.35254 110.365 8.56627 110.794 8.99373C111.223 9.4041 111.438 9.9085 111.438 10.507C111.438 11.1054 111.223 11.6184 110.794 12.0458C110.365 12.4562 109.85 12.6614 109.249 12.6614ZM107.574 27.0498V14.4824H110.949V27.0498H107.574Z" fill="white"/>
<path d="M115.299 17.3549H113.084V14.4824H115.299V10.6352H118.673V14.4824H121.764V17.3549H118.673V22.228C118.673 22.5187 118.699 22.7922 118.751 23.0487C118.819 23.2881 118.939 23.4933 119.111 23.6643C119.352 23.9378 119.695 24.0746 120.141 24.0746C120.433 24.0746 120.665 24.049 120.837 23.9977C121.009 23.9293 121.172 23.8438 121.326 23.7412L122.279 26.6907C121.884 26.8788 121.455 27.0156 120.991 27.1011C120.545 27.2037 120.047 27.2549 119.497 27.2549C118.862 27.2549 118.287 27.1609 117.772 26.9728C117.274 26.7676 116.853 26.4941 116.51 26.1521C115.703 25.3827 115.299 24.2884 115.299 22.8692V17.3549Z" fill="white"/>
<path d="M131.773 25.7161H131.567C131.172 26.1948 130.691 26.6052 130.125 26.9472C129.575 27.2891 128.863 27.4601 127.987 27.4601C127.334 27.4601 126.716 27.349 126.132 27.1267C125.566 26.9215 125.068 26.6309 124.639 26.2547C124.209 25.8785 123.874 25.4254 123.634 24.8954C123.394 24.3653 123.273 23.7839 123.273 23.1513C123.273 22.5016 123.402 21.9202 123.66 21.4073C123.917 20.8772 124.278 20.4241 124.742 20.0479C125.205 19.6718 125.746 19.3896 126.364 19.2015C127 18.9964 127.686 18.8938 128.425 18.8938C129.249 18.8938 129.927 18.9622 130.46 19.099C130.992 19.2186 131.43 19.3469 131.773 19.4837V19.099C131.773 18.4321 131.507 17.885 130.975 17.4575C130.442 17.0129 129.781 16.7907 128.992 16.7907C127.824 16.7907 126.837 17.278 126.029 18.2526L123.583 16.5855C124.922 14.9098 126.751 14.072 129.069 14.072C131.026 14.072 132.52 14.5337 133.55 15.457C134.581 16.3632 135.096 17.714 135.096 19.5093V27.0498H131.773V25.7161ZM131.773 21.9459C131.378 21.7578 130.966 21.6124 130.537 21.5098C130.125 21.3902 129.67 21.3303 129.172 21.3303C128.365 21.3303 127.738 21.5098 127.292 21.8689C126.862 22.2109 126.648 22.6383 126.648 23.1513C126.648 23.6643 126.854 24.0746 127.266 24.3824C127.695 24.6902 128.184 24.8441 128.734 24.8441C129.18 24.8441 129.592 24.7671 129.97 24.6132C130.348 24.4422 130.666 24.2285 130.923 23.972C131.198 23.6985 131.404 23.3907 131.541 23.0487C131.696 22.6896 131.773 22.322 131.773 21.9459Z" fill="white"/>
<path d="M137.779 27.0498V8.68596H141.153V27.0498H137.779Z" fill="white"/>
<path d="M146.316 27.1365C145.968 27.1365 145.669 27.0162 145.418 26.7758C145.176 26.5257 145.056 26.2276 145.056 25.8813C145.056 25.5351 145.176 25.2417 145.418 25.0013C145.669 24.7608 145.968 24.6406 146.316 24.6406C146.664 24.6406 146.958 24.7608 147.2 25.0013C147.441 25.2417 147.562 25.5351 147.562 25.8813C147.562 26.2276 147.441 26.5257 147.2 26.7758C146.958 27.0162 146.664 27.1365 146.316 27.1365Z" fill="#00A3FF"/>
<path d="M149.978 21.5962H148.732V19.9804H149.978V17.8164H151.876V19.9804H153.615V21.5962H151.876V24.3374C151.876 24.5009 151.891 24.6547 151.92 24.799C151.958 24.9337 152.026 25.0491 152.123 25.1453C152.258 25.2991 152.451 25.3761 152.702 25.3761C152.866 25.3761 152.997 25.3617 153.093 25.3328C153.19 25.2943 153.282 25.2462 153.369 25.1885L153.905 26.8476C153.683 26.9534 153.441 27.0304 153.18 27.0785C152.929 27.1362 152.649 27.165 152.34 27.165C151.983 27.165 151.659 27.1121 151.369 27.0063C151.089 26.8909 150.853 26.737 150.659 26.5447C150.205 26.1119 149.978 25.4963 149.978 24.698V21.5962Z" fill="white"/>
<path d="M161.663 25.3472C161.335 25.9243 160.89 26.3908 160.33 26.7466C159.779 27.1025 159.103 27.2804 158.302 27.2804C157.761 27.2804 157.259 27.1891 156.795 27.0063C156.341 26.814 155.945 26.5495 155.607 26.2128C155.269 25.8762 155.003 25.4819 154.81 25.0298C154.626 24.5682 154.535 24.0632 154.535 23.515C154.535 23.0053 154.626 22.5244 154.81 22.0723C154.994 21.6107 155.249 21.2115 155.578 20.8749C155.906 20.5287 156.293 20.2545 156.737 20.0526C157.191 19.8506 157.688 19.7496 158.229 19.7496C158.799 19.7496 159.306 19.8458 159.75 20.0381C160.195 20.2209 160.567 20.4806 160.866 20.8172C161.165 21.1442 161.392 21.5337 161.547 21.9858C161.702 22.4378 161.779 22.9283 161.779 23.4573C161.779 23.5246 161.779 23.5823 161.779 23.6304C161.769 23.6881 161.764 23.741 161.764 23.7891C161.755 23.8372 161.75 23.8901 161.75 23.9478H156.404C156.442 24.2364 156.52 24.4864 156.636 24.698C156.761 24.9 156.911 25.0731 157.085 25.2174C157.268 25.352 157.466 25.453 157.679 25.5204C157.891 25.5781 158.108 25.6069 158.331 25.6069C158.765 25.6069 159.123 25.5107 159.403 25.3184C159.693 25.1164 159.92 24.8663 160.084 24.5682L161.663 25.3472ZM159.939 22.6061C159.929 22.4811 159.886 22.3416 159.808 22.1877C159.741 22.0339 159.635 21.8896 159.49 21.7549C159.354 21.6203 159.181 21.5097 158.968 21.4231C158.765 21.3366 158.519 21.2933 158.229 21.2933C157.824 21.2933 157.466 21.4087 157.157 21.6395C156.848 21.8704 156.631 22.1926 156.505 22.6061H159.939Z" fill="white"/>
<path d="M167.437 26.2994H167.321C167.099 26.5687 166.829 26.7995 166.51 26.9919C166.201 27.1843 165.8 27.2804 165.307 27.2804C164.94 27.2804 164.593 27.2179 164.264 27.0929C163.946 26.9775 163.665 26.814 163.424 26.6024C163.182 26.3908 162.994 26.1359 162.859 25.8377C162.724 25.5396 162.656 25.2126 162.656 24.8567C162.656 24.4912 162.728 24.1642 162.873 23.8757C163.018 23.5775 163.221 23.3227 163.482 23.1111C163.743 22.8995 164.047 22.7408 164.395 22.635C164.752 22.5196 165.138 22.4619 165.554 22.4619C166.017 22.4619 166.399 22.5003 166.698 22.5773C166.998 22.6446 167.244 22.7167 167.437 22.7937V22.5773C167.437 22.2022 167.287 21.8944 166.988 21.654C166.689 21.4039 166.317 21.2789 165.872 21.2789C165.216 21.2789 164.66 21.553 164.206 22.1012L162.83 21.1634C163.583 20.2209 164.612 19.7496 165.916 19.7496C167.017 19.7496 167.857 20.0093 168.437 20.5287C169.016 21.0384 169.306 21.7982 169.306 22.8081V27.0496H167.437V26.2994ZM167.437 24.1787C167.215 24.0729 166.983 23.9911 166.742 23.9334C166.51 23.8661 166.254 23.8324 165.974 23.8324C165.52 23.8324 165.167 23.9334 164.916 24.1354C164.675 24.3277 164.554 24.5682 164.554 24.8567C164.554 25.1453 164.67 25.3761 164.902 25.5492C165.143 25.7223 165.418 25.8089 165.728 25.8089C165.979 25.8089 166.21 25.7656 166.423 25.6791C166.635 25.5829 166.814 25.4626 166.959 25.3184C167.114 25.1645 167.229 24.9914 167.307 24.799C167.394 24.597 167.437 24.3903 167.437 24.1787Z" fill="white"/>
<path d="M170.815 19.9804H172.597V20.9038H172.713C172.935 20.5575 173.235 20.2786 173.611 20.067C173.998 19.8554 174.423 19.7496 174.886 19.7496C175.427 19.7496 175.881 19.8746 176.248 20.1247C176.615 20.3748 176.876 20.6825 177.031 21.048C177.253 20.6922 177.567 20.3892 177.972 20.1391C178.378 19.8794 178.871 19.7496 179.45 19.7496C179.885 19.7496 180.261 19.8217 180.58 19.966C180.899 20.1007 181.16 20.293 181.363 20.5431C181.575 20.7932 181.734 21.0961 181.841 21.452C181.947 21.7982 182 22.1781 182 22.5917V27.0496H180.102V22.9379C180.102 21.9762 179.706 21.4953 178.914 21.4953C178.663 21.4953 178.441 21.553 178.248 21.6684C178.054 21.7742 177.89 21.9233 177.755 22.1156C177.629 22.2984 177.528 22.5196 177.451 22.7793C177.383 23.0389 177.349 23.3179 177.349 23.616V27.0496H175.451V22.9379C175.451 21.9762 175.036 21.4953 174.205 21.4953C173.964 21.4953 173.751 21.553 173.568 21.6684C173.384 21.7742 173.23 21.9233 173.104 22.1156C172.979 22.2984 172.882 22.5196 172.815 22.7793C172.747 23.0389 172.713 23.3179 172.713 23.616V27.0496H170.815V19.9804Z" fill="white"/>
<path d="M13.7525 46.0519C13.418 46.4931 13.0069 46.8506 12.5191 47.1245C12.0382 47.3983 11.4773 47.5353 10.8362 47.5353C10.2857 47.5353 9.77695 47.425 9.31006 47.2044C8.84317 46.9837 8.439 46.6833 8.09754 46.3029C7.75608 45.9149 7.4878 45.4623 7.29268 44.945C7.09756 44.4201 7 43.861 7 43.2676C7 42.6743 7.09756 42.1189 7.29268 41.6017C7.4878 41.0768 7.75608 40.6241 8.09754 40.2438C8.439 39.8558 8.84317 39.5515 9.31006 39.3309C9.77695 39.1103 10.2857 39 10.8362 39C11.4146 39 11.9267 39.1179 12.3727 39.3537C12.8187 39.582 13.2089 39.9091 13.5434 40.3351L13.0626 40.8371C12.4912 40.0764 11.749 39.6961 10.8362 39.6961C10.4041 39.6961 9.99646 39.7835 9.61319 39.9585C9.22992 40.1335 8.89543 40.3769 8.60973 40.6888C8.32402 41.0007 8.09754 41.3772 7.9303 41.8185C7.76305 42.2521 7.67943 42.7351 7.67943 43.2676C7.67943 43.8001 7.76305 44.287 7.9303 44.7282C8.09754 45.1618 8.32402 45.5384 8.60973 45.8579C8.89543 46.1698 9.22992 46.4132 9.61319 46.5882C9.99646 46.7555 10.4041 46.8392 10.8362 46.8392C11.3588 46.8392 11.8187 46.7251 12.2159 46.4969C12.6131 46.2687 12.965 45.953 13.2717 45.5498L13.7525 46.0519Z" fill="white" fill-opacity="0.75"/>
<path d="M17.37 41.5788C17.7463 41.5788 18.0912 41.6549 18.4048 41.8071C18.7253 41.9592 19.0006 42.1684 19.2305 42.4346C19.4605 42.7009 19.6382 43.0166 19.7636 43.3817C19.896 43.7393 19.9622 44.1311 19.9622 44.5571C19.9622 44.9831 19.896 45.3786 19.7636 45.7438C19.6382 46.1013 19.4605 46.4132 19.2305 46.6795C19.0006 46.9457 18.7253 47.1549 18.4048 47.3071C18.0912 47.4592 17.7463 47.5353 17.37 47.5353C17.0006 47.5353 16.6557 47.4592 16.3351 47.3071C16.0216 47.1549 15.7498 46.9457 15.5198 46.6795C15.2899 46.4132 15.1087 46.1013 14.9763 45.7438C14.8508 45.3786 14.7881 44.9831 14.7881 44.5571C14.7881 44.1311 14.8508 43.7393 14.9763 43.3817C15.1087 43.0166 15.2899 42.7009 15.5198 42.4346C15.7498 42.1684 16.0216 41.9592 16.3351 41.8071C16.6557 41.6549 17.0006 41.5788 17.37 41.5788ZM17.37 46.8734C17.6208 46.8734 17.8612 46.8202 18.0912 46.7137C18.3212 46.5996 18.5232 46.4436 18.6975 46.2459C18.8786 46.0405 19.0215 45.797 19.126 45.5156C19.2375 45.2265 19.2933 44.907 19.2933 44.5571C19.2933 44.2071 19.2375 43.8914 19.126 43.61C19.0215 43.3209 18.8786 43.0775 18.6975 42.8797C18.5232 42.6743 18.3212 42.5183 18.0912 42.4118C17.8612 42.2977 17.6208 42.2407 17.37 42.2407C17.1191 42.2407 16.8787 42.2977 16.6487 42.4118C16.4188 42.5183 16.2132 42.6743 16.032 42.8797C15.8578 43.0775 15.7184 43.3209 15.6139 43.61C15.5094 43.8914 15.4571 44.2071 15.4571 44.5571C15.4571 44.907 15.5094 45.2265 15.6139 45.5156C15.7184 45.797 15.8578 46.0405 16.032 46.2459C16.2132 46.4436 16.4188 46.5996 16.6487 46.7137C16.8787 46.8202 17.1191 46.8734 17.37 46.8734Z" fill="white" fill-opacity="0.75"/>
<path d="M21.9372 42.8112H21.9791C22.0627 42.6438 22.1637 42.4879 22.2822 42.3434C22.4006 42.1912 22.5365 42.0581 22.6898 41.944C22.8501 41.8299 23.0243 41.7424 23.2125 41.6815C23.4006 41.6131 23.6027 41.5788 23.8187 41.5788C24.1323 41.5788 24.4076 41.6359 24.6445 41.75C24.8814 41.8565 25.0766 42.0124 25.2299 42.2178C25.3901 42.4156 25.5086 42.6553 25.5853 42.9367C25.6619 43.2106 25.7002 43.5149 25.7002 43.8496V47.3527H25.0313V43.9751C25.0313 43.3741 24.9093 42.9367 24.6654 42.6629C24.4215 42.3814 24.0801 42.2407 23.641 42.2407C23.3971 42.2407 23.1742 42.3015 22.9721 42.4232C22.77 42.5373 22.5958 42.6971 22.4494 42.9025C22.3031 43.1003 22.1881 43.3285 22.1045 43.5871C22.0209 43.8458 21.9791 44.1158 21.9791 44.3973V47.3527H21.3101V41.7614H21.9372V42.8112Z" fill="white" fill-opacity="0.75"/>
<path d="M28.0537 42.8112H28.0956C28.1792 42.6438 28.2802 42.4879 28.3987 42.3434C28.5171 42.1912 28.653 42.0581 28.8063 41.944C28.9666 41.8299 29.1408 41.7424 29.329 41.6815C29.5171 41.6131 29.7192 41.5788 29.9352 41.5788C30.2488 41.5788 30.5241 41.6359 30.761 41.75C30.9979 41.8565 31.1931 42.0124 31.3464 42.2178C31.5066 42.4156 31.6251 42.6553 31.7018 42.9367C31.7784 43.2106 31.8167 43.5149 31.8167 43.8496V47.3527H31.1478V43.9751C31.1478 43.3741 31.0258 42.9367 30.7819 42.6629C30.538 42.3814 30.1966 42.2407 29.7575 42.2407C29.5136 42.2407 29.2907 42.3015 29.0886 42.4232C28.8865 42.5373 28.7123 42.6971 28.5659 42.9025C28.4196 43.1003 28.3046 43.3285 28.221 43.5871C28.1374 43.8458 28.0956 44.1158 28.0956 44.3973V47.3527H27.4266V41.7614H28.0537V42.8112Z" fill="white" fill-opacity="0.75"/>
<path d="M38.0273 46.029C37.9367 46.2344 37.8217 46.4284 37.6824 46.611C37.543 46.7936 37.3792 46.9533 37.1911 47.0902C37.0099 47.2272 36.8009 47.3337 36.5639 47.4098C36.327 47.4934 36.0657 47.5353 35.78 47.5353C35.4106 47.5353 35.0692 47.463 34.7556 47.3185C34.442 47.1663 34.1702 46.9571 33.9403 46.6909C33.7173 46.4246 33.5431 46.1127 33.4176 45.7552C33.2922 45.39 33.2295 44.9907 33.2295 44.5571C33.2295 44.1539 33.2852 43.7735 33.3967 43.416C33.5152 43.0508 33.6824 42.7351 33.8985 42.4689C34.1145 42.195 34.3758 41.9782 34.6824 41.8185C34.989 41.6587 35.334 41.5788 35.7173 41.5788C36.0866 41.5788 36.4176 41.6511 36.7103 41.7956C37.0099 41.9326 37.2643 42.1304 37.4733 42.389C37.6824 42.64 37.8426 42.9443 37.9541 43.3019C38.0726 43.6594 38.1318 44.055 38.1318 44.4886C38.1318 44.5114 38.1318 44.5342 38.1318 44.5571C38.1249 44.5799 38.1214 44.5989 38.1214 44.6141V44.6826H33.9089C33.9159 45.0705 33.9786 45.4015 34.0971 45.6753C34.2155 45.9492 34.3654 46.1774 34.5465 46.36C34.7277 46.5349 34.9298 46.6642 35.1528 46.7479C35.3758 46.8316 35.5918 46.8734 35.8009 46.8734C36.2329 46.8734 36.5744 46.7669 36.8252 46.5539C37.0761 46.3333 37.2852 46.0557 37.4524 45.721L38.0273 46.029ZM37.4315 44.0664C37.4245 43.8838 37.3897 43.686 37.327 43.473C37.2643 43.26 37.1667 43.0622 37.0343 42.8797C36.9019 42.6971 36.7242 42.545 36.5012 42.4232C36.2852 42.3015 36.0169 42.2407 35.6963 42.2407C35.4873 42.2407 35.2852 42.2825 35.0901 42.3662C34.895 42.4423 34.7173 42.5564 34.557 42.7085C34.4037 42.8607 34.2713 43.0508 34.1598 43.279C34.0553 43.5073 33.9856 43.7697 33.9507 44.0664H37.4315Z" fill="white" fill-opacity="0.75"/>
<path d="M44.1129 45.9378C44.0224 46.166 43.9074 46.379 43.768 46.5768C43.6356 46.7669 43.4788 46.9343 43.2976 47.0788C43.1164 47.2158 42.9074 47.3261 42.6705 47.4098C42.4335 47.4934 42.1722 47.5353 41.8865 47.5353C41.5172 47.5353 41.1757 47.4592 40.8621 47.3071C40.5486 47.1549 40.2768 46.9457 40.0468 46.6795C39.8238 46.4132 39.6461 46.1013 39.5137 45.7438C39.3883 45.3786 39.3256 44.9831 39.3256 44.5571C39.3256 44.1311 39.3883 43.7393 39.5137 43.3817C39.6461 43.0166 39.8238 42.7009 40.0468 42.4346C40.2768 42.1684 40.5486 41.9592 40.8621 41.8071C41.1757 41.6549 41.5172 41.5788 41.8865 41.5788C42.1722 41.5788 42.43 41.6207 42.66 41.7044C42.8969 41.7804 43.106 41.8907 43.2872 42.0353C43.4753 42.1798 43.6356 42.3472 43.768 42.5373C43.9004 42.7275 44.0084 42.9367 44.092 43.1649L43.4962 43.4502C43.3429 43.0622 43.1304 42.7656 42.8586 42.5602C42.5868 42.3472 42.2524 42.2407 41.8551 42.2407C41.6182 42.2407 41.3883 42.2977 41.1653 42.4118C40.9423 42.5183 40.7437 42.6743 40.5695 42.8797C40.3952 43.0775 40.2559 43.3209 40.1513 43.61C40.0468 43.8914 39.9946 44.2071 39.9946 44.5571C39.9946 44.907 40.0468 45.2265 40.1513 45.5156C40.2559 45.797 40.3952 46.0405 40.5695 46.2459C40.7437 46.4436 40.9423 46.5996 41.1653 46.7137C41.3883 46.8202 41.6182 46.8734 41.8551 46.8734C42.2524 46.8734 42.5903 46.7707 42.8691 46.5654C43.1478 46.3524 43.3638 46.0519 43.5171 45.6639L44.1129 45.9378Z" fill="white" fill-opacity="0.75"/>
<path d="M46.0447 42.4232H45.1144V41.7614H46.0447V40.0498H46.7137V41.7614H47.989V42.4232H46.7137V45.7894C46.7137 46.1165 46.7869 46.36 46.9332 46.5197C47.0726 46.6871 47.2398 46.7707 47.435 46.7707C47.5395 46.7707 47.6266 46.7631 47.6963 46.7479C47.7729 46.7251 47.8566 46.6909 47.9472 46.6452L48.1562 47.2728C48.0377 47.3337 47.9158 47.3755 47.7904 47.3983C47.6719 47.4288 47.529 47.444 47.3618 47.444C46.9994 47.444 46.6928 47.3185 46.442 47.0674C46.3165 46.9381 46.219 46.7822 46.1493 46.5996C46.0796 46.4094 46.0447 46.1812 46.0447 45.9149V42.4232Z" fill="white" fill-opacity="0.75"/>
<path d="M49.9726 40.3921C49.8263 40.3921 49.7008 40.3389 49.5963 40.2324C49.4988 40.1183 49.45 39.9851 49.45 39.833C49.45 39.6732 49.4988 39.5401 49.5963 39.4336C49.7008 39.3195 49.8263 39.2624 49.9726 39.2624C50.112 39.2624 50.2305 39.3195 50.328 39.4336C50.4325 39.5401 50.4848 39.6732 50.4848 39.833C50.4848 39.9851 50.4325 40.1183 50.328 40.2324C50.2305 40.3389 50.112 40.3921 49.9726 40.3921ZM49.6381 47.3527V41.7614H50.3071V47.3527H49.6381Z" fill="white" fill-opacity="0.75"/>
<path d="M52.7668 42.8112H52.8086C52.8922 42.6438 52.9932 42.4879 53.1117 42.3434C53.2302 42.1912 53.3661 42.0581 53.5194 41.944C53.6796 41.8299 53.8539 41.7424 54.042 41.6815C54.2302 41.6131 54.4322 41.5788 54.6483 41.5788C54.9619 41.5788 55.2371 41.6359 55.474 41.75C55.711 41.8565 55.9061 42.0124 56.0594 42.2178C56.2197 42.4156 56.3381 42.6553 56.4148 42.9367C56.4914 43.2106 56.5298 43.5149 56.5298 43.8496V47.3527H55.8608V43.9751C55.8608 43.3741 55.7388 42.9367 55.4949 42.6629C55.251 42.3814 54.9096 42.2407 54.4706 42.2407C54.2267 42.2407 54.0037 42.3015 53.8016 42.4232C53.5995 42.5373 53.4253 42.6971 53.279 42.9025C53.1326 43.1003 53.0176 43.3285 52.934 43.5871C52.8504 43.8458 52.8086 44.1158 52.8086 44.3973V47.3527H52.1396V41.7614H52.7668V42.8112Z" fill="white" fill-opacity="0.75"/>
<path d="M60.3792 50C60.0448 50 59.7521 49.9506 59.5012 49.8517C59.2503 49.7528 59.0308 49.6272 58.8427 49.4751C58.6615 49.323 58.5117 49.148 58.3932 48.9502C58.2747 48.76 58.1842 48.5698 58.1214 48.3797L58.7486 48.1058C58.8601 48.4862 59.0622 48.7867 59.3549 49.0073C59.6475 49.2279 59.989 49.3382 60.3792 49.3382C60.9925 49.3382 61.4559 49.1404 61.7695 48.7448C62.083 48.3568 62.2398 47.8167 62.2398 47.1245V46.3942H62.1876C62.0273 46.6909 61.7869 46.9571 61.4663 47.1929C61.1527 47.4212 60.766 47.5353 60.3061 47.5353C59.9785 47.5353 59.6684 47.463 59.3758 47.3185C59.0901 47.1663 58.8357 46.9571 58.6127 46.6909C58.3897 46.4246 58.212 46.1089 58.0796 45.7438C57.9542 45.3786 57.8915 44.9831 57.8915 44.5571C57.8915 44.1311 57.9542 43.7355 58.0796 43.3703C58.212 43.0052 58.3897 42.6895 58.6127 42.4232C58.8357 42.157 59.0901 41.9516 59.3758 41.8071C59.6684 41.6549 59.9785 41.5788 60.3061 41.5788C60.766 41.5788 61.1527 41.6929 61.4663 41.9212C61.7869 42.1494 62.0273 42.4118 62.1876 42.7085H62.2398V41.7614H62.8879V47.1701C62.8879 47.6418 62.8217 48.0526 62.6893 48.4025C62.5639 48.76 62.3862 49.0567 62.1562 49.2925C61.9332 49.5284 61.6684 49.7033 61.3618 49.8174C61.0552 49.9391 60.7277 50 60.3792 50ZM60.4001 46.8734C60.6371 46.8734 60.867 46.824 61.09 46.7251C61.32 46.6186 61.5186 46.4665 61.6858 46.2687C61.86 46.0709 61.9994 45.8313 62.1039 45.5498C62.2085 45.2607 62.2607 44.9298 62.2607 44.5571C62.2607 44.1843 62.2085 43.8572 62.1039 43.5757C61.9994 43.2867 61.86 43.0432 61.6858 42.8454C61.5186 42.6476 61.32 42.4993 61.09 42.4004C60.867 42.2939 60.6371 42.2407 60.4001 42.2407C60.1632 42.2407 59.9333 42.2939 59.7103 42.4004C59.4942 42.5069 59.2991 42.6591 59.1249 42.8568C58.9577 43.0546 58.8218 43.2981 58.7173 43.5871C58.6127 43.8686 58.5605 44.1919 58.5605 44.5571C58.5605 44.9146 58.6127 45.2379 58.7173 45.527C58.8218 45.816 58.9577 46.0595 59.1249 46.2573C59.2991 46.455 59.4942 46.6072 59.7103 46.7137C59.9333 46.8202 60.1632 46.8734 60.4001 46.8734Z" fill="white" fill-opacity="0.75"/>
<path d="M67.5993 41.7614H68.2265V42.7313H68.2683C68.3519 42.5792 68.453 42.4346 68.5714 42.2977C68.6899 42.1532 68.8293 42.0277 68.9895 41.9212C69.1498 41.8147 69.331 41.731 69.5331 41.6701C69.7352 41.6093 69.9582 41.5788 70.2021 41.5788C70.5296 41.5788 70.8397 41.6549 71.1324 41.8071C71.425 41.9516 71.6794 42.157 71.8954 42.4232C72.1184 42.6819 72.2926 42.9938 72.418 43.3589C72.5504 43.7241 72.6166 44.1234 72.6166 44.5571C72.6166 44.9907 72.5504 45.39 72.418 45.7552C72.2926 46.1203 72.1184 46.436 71.8954 46.7023C71.6794 46.9609 71.425 47.1663 71.1324 47.3185C70.8397 47.463 70.5296 47.5353 70.2021 47.5353C69.9582 47.5353 69.7352 47.501 69.5331 47.4326C69.331 47.3717 69.1498 47.288 68.9895 47.1815C68.8293 47.075 68.6899 46.9533 68.5714 46.8164C68.453 46.6719 68.3519 46.5235 68.2683 46.3714H68.2265L68.2683 47.1473V49.8174H67.5993V41.7614ZM70.0871 46.8734C70.331 46.8734 70.5644 46.8202 70.7874 46.7137C71.0174 46.6072 71.216 46.455 71.3832 46.2573C71.5574 46.0595 71.6933 45.816 71.7909 45.527C71.8954 45.2379 71.9477 44.9146 71.9477 44.5571C71.9477 44.1995 71.8954 43.88 71.7909 43.5985C71.6933 43.3095 71.5574 43.066 71.3832 42.8683C71.216 42.6629 71.0174 42.5069 70.7874 42.4004C70.5644 42.2939 70.331 42.2407 70.0871 42.2407C69.8432 42.2407 69.6063 42.2939 69.3763 42.4004C69.1533 42.4993 68.9547 42.6476 68.7805 42.8454C68.6132 43.0432 68.4774 43.2867 68.3728 43.5757C68.2753 43.8648 68.2265 44.1919 68.2265 44.5571C68.2265 44.9222 68.2753 45.2493 68.3728 45.5384C68.4774 45.8198 68.6132 46.0633 68.7805 46.2687C68.9547 46.4665 69.1533 46.6186 69.3763 46.7251C69.6063 46.824 69.8432 46.8734 70.0871 46.8734Z" fill="white" fill-opacity="0.75"/>
<path d="M78.5583 46.029C78.4677 46.2344 78.3527 46.4284 78.2134 46.611C78.074 46.7936 77.9102 46.9533 77.7221 47.0902C77.5409 47.2272 77.3319 47.3337 77.0949 47.4098C76.858 47.4934 76.5967 47.5353 76.311 47.5353C75.9416 47.5353 75.6002 47.463 75.2866 47.3185C74.973 47.1663 74.7012 46.9571 74.4713 46.6909C74.2483 46.4246 74.0741 46.1127 73.9486 45.7552C73.8232 45.39 73.7605 44.9907 73.7605 44.5571C73.7605 44.1539 73.8162 43.7735 73.9277 43.416C74.0462 43.0508 74.2134 42.7351 74.4295 42.4689C74.6455 42.195 74.9068 41.9782 75.2134 41.8185C75.52 41.6587 75.865 41.5788 76.2483 41.5788C76.6176 41.5788 76.9486 41.6511 77.2413 41.7956C77.5409 41.9326 77.7953 42.1304 78.0043 42.389C78.2134 42.64 78.3736 42.9443 78.4851 43.3019C78.6036 43.6594 78.6628 44.055 78.6628 44.4886C78.6628 44.5114 78.6628 44.5342 78.6628 44.5571C78.6559 44.5799 78.6524 44.5989 78.6524 44.6141V44.6826H74.4399C74.4469 45.0705 74.5096 45.4015 74.6281 45.6753C74.7465 45.9492 74.8964 46.1774 75.0775 46.36C75.2587 46.5349 75.4608 46.6642 75.6838 46.7479C75.9068 46.8316 76.1228 46.8734 76.3319 46.8734C76.7639 46.8734 77.1054 46.7669 77.3562 46.5539C77.6071 46.3333 77.8162 46.0557 77.9834 45.721L78.5583 46.029ZM77.9625 44.0664C77.9555 43.8838 77.9207 43.686 77.858 43.473C77.7953 43.26 77.6977 43.0622 77.5653 42.8797C77.4329 42.6971 77.2552 42.545 77.0322 42.4232C76.8162 42.3015 76.5479 42.2407 76.2273 42.2407C76.0183 42.2407 75.8162 42.2825 75.6211 42.3662C75.426 42.4423 75.2483 42.5564 75.088 42.7085C74.9347 42.8607 74.8023 43.0508 74.6908 43.279C74.5863 43.5073 74.5166 43.7697 74.4817 44.0664H77.9625Z" fill="white" fill-opacity="0.75"/>
<path d="M82.4384 41.5788C82.8147 41.5788 83.1596 41.6549 83.4732 41.8071C83.7938 41.9592 84.069 42.1684 84.299 42.4346C84.529 42.7009 84.7067 43.0166 84.8321 43.3817C84.9645 43.7393 85.0307 44.1311 85.0307 44.5571C85.0307 44.9831 84.9645 45.3786 84.8321 45.7438C84.7067 46.1013 84.529 46.4132 84.299 46.6795C84.069 46.9457 83.7938 47.1549 83.4732 47.3071C83.1596 47.4592 82.8147 47.5353 82.4384 47.5353C82.0691 47.5353 81.7241 47.4592 81.4036 47.3071C81.09 47.1549 80.8182 46.9457 80.5883 46.6795C80.3583 46.4132 80.1771 46.1013 80.0447 45.7438C79.9193 45.3786 79.8566 44.9831 79.8566 44.5571C79.8566 44.1311 79.9193 43.7393 80.0447 43.3817C80.1771 43.0166 80.3583 42.7009 80.5883 42.4346C80.8182 42.1684 81.09 41.9592 81.4036 41.8071C81.7241 41.6549 82.0691 41.5788 82.4384 41.5788ZM82.4384 46.8734C82.6893 46.8734 82.9297 46.8202 83.1596 46.7137C83.3896 46.5996 83.5917 46.4436 83.7659 46.2459C83.9471 46.0405 84.0899 45.797 84.1945 45.5156C84.306 45.2265 84.3617 44.907 84.3617 44.5571C84.3617 44.2071 84.306 43.8914 84.1945 43.61C84.0899 43.3209 83.9471 43.0775 83.7659 42.8797C83.5917 42.6743 83.3896 42.5183 83.1596 42.4118C82.9297 42.2977 82.6893 42.2407 82.4384 42.2407C82.1875 42.2407 81.9471 42.2977 81.7172 42.4118C81.4872 42.5183 81.2816 42.6743 81.1004 42.8797C80.9262 43.0775 80.7869 43.3209 80.6823 43.61C80.5778 43.8914 80.5256 44.2071 80.5256 44.5571C80.5256 44.907 80.5778 45.2265 80.6823 45.5156C80.7869 45.797 80.9262 46.0405 81.1004 46.2459C81.2816 46.4436 81.4872 46.5996 81.7172 46.7137C81.9471 46.8202 82.1875 46.8734 82.4384 46.8734Z" fill="white" fill-opacity="0.75"/>
<path d="M86.3877 41.7614H87.0149V42.7313H87.0567C87.1404 42.5792 87.2414 42.4346 87.3599 42.2977C87.4783 42.1532 87.6177 42.0277 87.778 41.9212C87.9382 41.8147 88.1194 41.731 88.3215 41.6701C88.5236 41.6093 88.7466 41.5788 88.9905 41.5788C89.318 41.5788 89.6281 41.6549 89.9208 41.8071C90.2135 41.9516 90.4678 42.157 90.6838 42.4232C90.9068 42.6819 91.081 42.9938 91.2065 43.3589C91.3389 43.7241 91.4051 44.1234 91.4051 44.5571C91.4051 44.9907 91.3389 45.39 91.2065 45.7552C91.081 46.1203 90.9068 46.436 90.6838 46.7023C90.4678 46.9609 90.2135 47.1663 89.9208 47.3185C89.6281 47.463 89.318 47.5353 88.9905 47.5353C88.7466 47.5353 88.5236 47.501 88.3215 47.4326C88.1194 47.3717 87.9382 47.288 87.778 47.1815C87.6177 47.075 87.4783 46.9533 87.3599 46.8164C87.2414 46.6719 87.1404 46.5235 87.0567 46.3714H87.0149L87.0567 47.1473V49.8174H86.3877V41.7614ZM88.8755 46.8734C89.1194 46.8734 89.3529 46.8202 89.5758 46.7137C89.8058 46.6072 90.0044 46.455 90.1717 46.2573C90.3459 46.0595 90.4818 45.816 90.5793 45.527C90.6838 45.2379 90.7361 44.9146 90.7361 44.5571C90.7361 44.1995 90.6838 43.88 90.5793 43.5985C90.4818 43.3095 90.3459 43.066 90.1717 42.8683C90.0044 42.6629 89.8058 42.5069 89.5758 42.4004C89.3529 42.2939 89.1194 42.2407 88.8755 42.2407C88.6316 42.2407 88.3947 42.2939 88.1647 42.4004C87.9417 42.4993 87.7431 42.6476 87.5689 42.8454C87.4017 43.0432 87.2658 43.2867 87.1613 43.5757C87.0637 43.8648 87.0149 44.1919 87.0149 44.5571C87.0149 44.9222 87.0637 45.2493 87.1613 45.5384C87.2658 45.8198 87.4017 46.0633 87.5689 46.2687C87.7431 46.4665 87.9417 46.6186 88.1647 46.7251C88.3947 46.824 88.6316 46.8734 88.8755 46.8734Z" fill="white" fill-opacity="0.75"/>
<path d="M92.7604 47.3527V39.1826H93.4294V47.3527H92.7604Z" fill="white" fill-opacity="0.75"/>
<path d="M99.6251 46.029C99.5345 46.2344 99.4195 46.4284 99.2802 46.611C99.1408 46.7936 98.9771 46.9533 98.7889 47.0902C98.6077 47.2272 98.3987 47.3337 98.1617 47.4098C97.9248 47.4934 97.6635 47.5353 97.3778 47.5353C97.0084 47.5353 96.667 47.463 96.3534 47.3185C96.0398 47.1663 95.7681 46.9571 95.5381 46.6909C95.3151 46.4246 95.1409 46.1127 95.0154 45.7552C94.89 45.39 94.8273 44.9907 94.8273 44.5571C94.8273 44.1539 94.883 43.7735 94.9945 43.416C95.113 43.0508 95.2803 42.7351 95.4963 42.4689C95.7123 42.195 95.9736 41.9782 96.2802 41.8185C96.5868 41.6587 96.9318 41.5788 97.3151 41.5788C97.6844 41.5788 98.0154 41.6511 98.3081 41.7956C98.6077 41.9326 98.8621 42.1304 99.0711 42.389C99.2802 42.64 99.4405 42.9443 99.5519 43.3019C99.6704 43.6594 99.7297 44.055 99.7297 44.4886C99.7297 44.5114 99.7297 44.5342 99.7297 44.5571C99.7227 44.5799 99.7192 44.5989 99.7192 44.6141V44.6826H95.5067C95.5137 45.0705 95.5764 45.4015 95.6949 45.6753C95.8133 45.9492 95.9632 46.1774 96.1443 46.36C96.3255 46.5349 96.5276 46.6642 96.7506 46.7479C96.9736 46.8316 97.1896 46.8734 97.3987 46.8734C97.8307 46.8734 98.1722 46.7669 98.423 46.5539C98.6739 46.3333 98.883 46.0557 99.0502 45.721L99.6251 46.029ZM99.0293 44.0664C99.0223 43.8838 98.9875 43.686 98.9248 43.473C98.8621 43.26 98.7645 43.0622 98.6321 42.8797C98.4997 42.6971 98.322 42.545 98.099 42.4232C97.883 42.3015 97.6147 42.2407 97.2942 42.2407C97.0851 42.2407 96.883 42.2825 96.6879 42.3662C96.4928 42.4423 96.3151 42.5564 96.1548 42.7085C96.0015 42.8607 95.8691 43.0508 95.7576 43.279C95.6531 43.5073 95.5834 43.7697 95.5485 44.0664H99.0293Z" fill="white" fill-opacity="0.75"/>
<path d="M108.81 47.3527L107.357 42.6286L105.925 47.3527H105.277L103.583 41.7614H104.263L105.611 46.36H105.622L107.022 41.7614H107.733L109.144 46.3371H109.155L110.493 41.7614H111.151L109.458 47.3527H108.81Z" fill="white" fill-opacity="0.75"/>
<path d="M112.744 40.3921C112.598 40.3921 112.473 40.3389 112.368 40.2324C112.27 40.1183 112.222 39.9851 112.222 39.833C112.222 39.6732 112.27 39.5401 112.368 39.4336C112.473 39.3195 112.598 39.2624 112.744 39.2624C112.884 39.2624 113.002 39.3195 113.1 39.4336C113.204 39.5401 113.257 39.6732 113.257 39.833C113.257 39.9851 113.204 40.1183 113.1 40.2324C113.002 40.3389 112.884 40.3921 112.744 40.3921ZM112.41 47.3527V41.7614H113.079V47.3527H112.41Z" fill="white" fill-opacity="0.75"/>
<path d="M115.435 42.4232H114.505V41.7614H115.435V40.0498H116.104V41.7614H117.379V42.4232H116.104V45.7894C116.104 46.1165 116.177 46.36 116.324 46.5197C116.463 46.6871 116.63 46.7707 116.825 46.7707C116.93 46.7707 117.017 46.7631 117.087 46.7479C117.163 46.7251 117.247 46.6909 117.338 46.6452L117.547 47.2728C117.428 47.3337 117.306 47.3755 117.181 47.3983C117.062 47.4288 116.919 47.444 116.752 47.444C116.39 47.444 116.083 47.3185 115.832 47.0674C115.707 46.9381 115.609 46.7822 115.54 46.5996C115.47 46.4094 115.435 46.1812 115.435 45.9149V42.4232Z" fill="white" fill-opacity="0.75"/>
<path d="M118.966 39.1826H119.635V41.944L119.593 42.834H119.635C119.795 42.4689 120.032 42.1684 120.346 41.9326C120.659 41.6967 121.035 41.5788 121.474 41.5788C121.795 41.5788 122.074 41.6359 122.311 41.75C122.548 41.8641 122.743 42.0239 122.896 42.2293C123.056 42.427 123.171 42.6667 123.241 42.9481C123.318 43.222 123.356 43.5225 123.356 43.8496V47.3527H122.687V43.9751C122.687 43.3894 122.565 42.9557 122.321 42.6743C122.077 42.3852 121.743 42.2407 121.318 42.2407C121.074 42.2407 120.851 42.3015 120.649 42.4232C120.447 42.545 120.269 42.7047 120.116 42.9025C119.962 43.1003 119.844 43.3323 119.76 43.5985C119.677 43.8648 119.635 44.1387 119.635 44.4201V47.3527H118.966V39.1826Z" fill="white" fill-opacity="0.75"/>
<path d="M128.64 42.4232H127.71V41.7614H128.64V40.0498H129.309V41.7614H130.584V42.4232H129.309V45.7894C129.309 46.1165 129.382 46.36 129.528 46.5197C129.668 46.6871 129.835 46.7707 130.03 46.7707C130.135 46.7707 130.222 46.7631 130.291 46.7479C130.368 46.7251 130.452 46.6909 130.542 46.6452L130.751 47.2728C130.633 47.3337 130.511 47.3755 130.386 47.3983C130.267 47.4288 130.124 47.444 129.957 47.444C129.595 47.444 129.288 47.3185 129.037 47.0674C128.912 46.9381 128.814 46.7822 128.744 46.5996C128.675 46.4094 128.64 46.1812 128.64 45.9149V42.4232Z" fill="white" fill-opacity="0.75"/>
<path d="M136.553 46.029C136.462 46.2344 136.347 46.4284 136.208 46.611C136.068 46.7936 135.905 46.9533 135.717 47.0902C135.535 47.2272 135.326 47.3337 135.089 47.4098C134.852 47.4934 134.591 47.5353 134.305 47.5353C133.936 47.5353 133.595 47.463 133.281 47.3185C132.967 47.1663 132.696 46.9571 132.466 46.6909C132.243 46.4246 132.069 46.1127 131.943 45.7552C131.818 45.39 131.755 44.9907 131.755 44.5571C131.755 44.1539 131.811 43.7735 131.922 43.416C132.041 43.0508 132.208 42.7351 132.424 42.4689C132.64 42.195 132.901 41.9782 133.208 41.8185C133.514 41.6587 133.859 41.5788 134.243 41.5788C134.612 41.5788 134.943 41.6511 135.236 41.7956C135.535 41.9326 135.79 42.1304 135.999 42.389C136.208 42.64 136.368 42.9443 136.48 43.3019C136.598 43.6594 136.657 44.055 136.657 44.4886C136.657 44.5114 136.657 44.5342 136.657 44.5571C136.65 44.5799 136.647 44.5989 136.647 44.6141V44.6826H132.434C132.441 45.0705 132.504 45.4015 132.623 45.6753C132.741 45.9492 132.891 46.1774 133.072 46.36C133.253 46.5349 133.455 46.6642 133.678 46.7479C133.901 46.8316 134.117 46.8734 134.326 46.8734C134.758 46.8734 135.1 46.7669 135.351 46.5539C135.602 46.3333 135.811 46.0557 135.978 45.721L136.553 46.029ZM135.957 44.0664C135.95 43.8838 135.915 43.686 135.852 43.473C135.79 43.26 135.692 43.0622 135.56 42.8797C135.427 42.6971 135.25 42.545 135.027 42.4232C134.811 42.3015 134.542 42.2407 134.222 42.2407C134.013 42.2407 133.811 42.2825 133.616 42.3662C133.42 42.4423 133.243 42.5564 133.082 42.7085C132.929 42.8607 132.797 43.0508 132.685 43.279C132.581 43.5073 132.511 43.7697 132.476 44.0664H135.957Z" fill="white" fill-opacity="0.75"/>
<path d="M142.638 45.9378C142.548 46.166 142.433 46.379 142.293 46.5768C142.161 46.7669 142.004 46.9343 141.823 47.0788C141.642 47.2158 141.433 47.3261 141.196 47.4098C140.959 47.4934 140.698 47.5353 140.412 47.5353C140.043 47.5353 139.701 47.4592 139.388 47.3071C139.074 47.1549 138.802 46.9457 138.572 46.6795C138.349 46.4132 138.172 46.1013 138.039 45.7438C137.914 45.3786 137.851 44.9831 137.851 44.5571C137.851 44.1311 137.914 43.7393 138.039 43.3817C138.172 43.0166 138.349 42.7009 138.572 42.4346C138.802 42.1684 139.074 41.9592 139.388 41.8071C139.701 41.6549 140.043 41.5788 140.412 41.5788C140.698 41.5788 140.956 41.6207 141.185 41.7044C141.422 41.7804 141.631 41.8907 141.813 42.0353C142.001 42.1798 142.161 42.3472 142.293 42.5373C142.426 42.7275 142.534 42.9367 142.617 43.1649L142.022 43.4502C141.868 43.0622 141.656 42.7656 141.384 42.5602C141.112 42.3472 140.778 42.2407 140.381 42.2407C140.144 42.2407 139.914 42.2977 139.691 42.4118C139.468 42.5183 139.269 42.6743 139.095 42.8797C138.921 43.0775 138.781 43.3209 138.677 43.61C138.572 43.8914 138.52 44.2071 138.52 44.5571C138.52 44.907 138.572 45.2265 138.677 45.5156C138.781 45.797 138.921 46.0405 139.095 46.2459C139.269 46.4436 139.468 46.5996 139.691 46.7137C139.914 46.8202 140.144 46.8734 140.381 46.8734C140.778 46.8734 141.116 46.7707 141.395 46.5654C141.673 46.3524 141.889 46.0519 142.043 45.6639L142.638 45.9378Z" fill="white" fill-opacity="0.75"/>
<path d="M144.046 39.1826H144.715V41.944L144.673 42.834H144.715C144.876 42.4689 145.113 42.1684 145.426 41.9326C145.74 41.6967 146.116 41.5788 146.555 41.5788C146.876 41.5788 147.154 41.6359 147.391 41.75C147.628 41.8641 147.823 42.0239 147.977 42.2293C148.137 42.427 148.252 42.6667 148.322 42.9481C148.398 43.222 148.436 43.5225 148.436 43.8496V47.3527H147.768V43.9751C147.768 43.3894 147.646 42.9557 147.402 42.6743C147.158 42.3852 146.823 42.2407 146.398 42.2407C146.154 42.2407 145.931 42.3015 145.729 42.4232C145.527 42.545 145.349 42.7047 145.196 42.9025C145.043 43.1003 144.924 43.3323 144.841 43.5985C144.757 43.8648 144.715 44.1387 144.715 44.4201V47.3527H144.046V39.1826Z" fill="white" fill-opacity="0.75"/>
<path d="M150.79 42.8112H150.832C150.915 42.6438 151.016 42.4879 151.135 42.3434C151.253 42.1912 151.389 42.0581 151.543 41.944C151.703 41.8299 151.877 41.7424 152.065 41.6815C152.253 41.6131 152.455 41.5788 152.671 41.5788C152.985 41.5788 153.26 41.6359 153.497 41.75C153.734 41.8565 153.929 42.0124 154.083 42.2178C154.243 42.4156 154.361 42.6553 154.438 42.9367C154.515 43.2106 154.553 43.5149 154.553 43.8496V47.3527H153.884V43.9751C153.884 43.3741 153.762 42.9367 153.518 42.6629C153.274 42.3814 152.933 42.2407 152.494 42.2407C152.25 42.2407 152.027 42.3015 151.825 42.4232C151.623 42.5373 151.449 42.6971 151.302 42.9025C151.156 43.1003 151.041 43.3285 150.957 43.5871C150.874 43.8458 150.832 44.1158 150.832 44.3973V47.3527H150.163V41.7614H150.79V42.8112Z" fill="white" fill-opacity="0.75"/>
<path d="M158.548 41.5788C158.924 41.5788 159.269 41.6549 159.582 41.8071C159.903 41.9592 160.178 42.1684 160.408 42.4346C160.638 42.7009 160.816 43.0166 160.941 43.3817C161.074 43.7393 161.14 44.1311 161.14 44.5571C161.14 44.9831 161.074 45.3786 160.941 45.7438C160.816 46.1013 160.638 46.4132 160.408 46.6795C160.178 46.9457 159.903 47.1549 159.582 47.3071C159.269 47.4592 158.924 47.5353 158.548 47.5353C158.178 47.5353 157.833 47.4592 157.513 47.3071C157.199 47.1549 156.927 46.9457 156.697 46.6795C156.467 46.4132 156.286 46.1013 156.154 45.7438C156.028 45.3786 155.966 44.9831 155.966 44.5571C155.966 44.1311 156.028 43.7393 156.154 43.3817C156.286 43.0166 156.467 42.7009 156.697 42.4346C156.927 42.1684 157.199 41.9592 157.513 41.8071C157.833 41.6549 158.178 41.5788 158.548 41.5788ZM158.548 46.8734C158.798 46.8734 159.039 46.8202 159.269 46.7137C159.499 46.5996 159.701 46.4436 159.875 46.2459C160.056 46.0405 160.199 45.797 160.304 45.5156C160.415 45.2265 160.471 44.907 160.471 44.5571C160.471 44.2071 160.415 43.8914 160.304 43.61C160.199 43.3209 160.056 43.0775 159.875 42.8797C159.701 42.6743 159.499 42.5183 159.269 42.4118C159.039 42.2977 158.798 42.2407 158.548 42.2407C158.297 42.2407 158.056 42.2977 157.826 42.4118C157.596 42.5183 157.391 42.6743 157.21 42.8797C157.035 43.0775 156.896 43.3209 156.792 43.61C156.687 43.8914 156.635 44.2071 156.635 44.5571C156.635 44.907 156.687 45.2265 156.792 45.5156C156.896 45.797 157.035 46.0405 157.21 46.2459C157.391 46.4436 157.596 46.5996 157.826 46.7137C158.056 46.8202 158.297 46.8734 158.548 46.8734Z" fill="white" fill-opacity="0.75"/>
<path d="M162.539 47.3527V39.1826H163.208V47.3527H162.539Z" fill="white" fill-opacity="0.75"/>
<path d="M167.187 41.5788C167.564 41.5788 167.909 41.6549 168.222 41.8071C168.543 41.9592 168.818 42.1684 169.048 42.4346C169.278 42.7009 169.456 43.0166 169.581 43.3817C169.714 43.7393 169.78 44.1311 169.78 44.5571C169.78 44.9831 169.714 45.3786 169.581 45.7438C169.456 46.1013 169.278 46.4132 169.048 46.6795C168.818 46.9457 168.543 47.1549 168.222 47.3071C167.909 47.4592 167.564 47.5353 167.187 47.5353C166.818 47.5353 166.473 47.4592 166.153 47.3071C165.839 47.1549 165.567 46.9457 165.337 46.6795C165.107 46.4132 164.926 46.1013 164.794 45.7438C164.668 45.3786 164.606 44.9831 164.606 44.5571C164.606 44.1311 164.668 43.7393 164.794 43.3817C164.926 43.0166 165.107 42.7009 165.337 42.4346C165.567 42.1684 165.839 41.9592 166.153 41.8071C166.473 41.6549 166.818 41.5788 167.187 41.5788ZM167.187 46.8734C167.438 46.8734 167.679 46.8202 167.909 46.7137C168.139 46.5996 168.341 46.4436 168.515 46.2459C168.696 46.0405 168.839 45.797 168.944 45.5156C169.055 45.2265 169.111 44.907 169.111 44.5571C169.111 44.2071 169.055 43.8914 168.944 43.61C168.839 43.3209 168.696 43.0775 168.515 42.8797C168.341 42.6743 168.139 42.5183 167.909 42.4118C167.679 42.2977 167.438 42.2407 167.187 42.2407C166.937 42.2407 166.696 42.2977 166.466 42.4118C166.236 42.5183 166.031 42.6743 165.849 42.8797C165.675 43.0775 165.536 43.3209 165.431 43.61C165.327 43.8914 165.275 44.2071 165.275 44.5571C165.275 44.907 165.327 45.2265 165.431 45.5156C165.536 45.797 165.675 46.0405 165.849 46.2459C166.031 46.4436 166.236 46.5996 166.466 46.7137C166.696 46.8202 166.937 46.8734 167.187 46.8734Z" fill="white" fill-opacity="0.75"/>
<path d="M173.404 50C173.069 50 172.777 49.9506 172.526 49.8517C172.275 49.7528 172.055 49.6272 171.867 49.4751C171.686 49.323 171.536 49.148 171.418 48.9502C171.299 48.76 171.209 48.5698 171.146 48.3797L171.773 48.1058C171.885 48.4862 172.087 48.7867 172.379 49.0073C172.672 49.2279 173.014 49.3382 173.404 49.3382C174.017 49.3382 174.48 49.1404 174.794 48.7448C175.108 48.3568 175.264 47.8167 175.264 47.1245V46.3942H175.212C175.052 46.6909 174.811 46.9571 174.491 47.1929C174.177 47.4212 173.791 47.5353 173.331 47.5353C173.003 47.5353 172.693 47.463 172.4 47.3185C172.115 47.1663 171.86 46.9571 171.637 46.6909C171.414 46.4246 171.237 46.1089 171.104 45.7438C170.979 45.3786 170.916 44.9831 170.916 44.5571C170.916 44.1311 170.979 43.7355 171.104 43.3703C171.237 43.0052 171.414 42.6895 171.637 42.4232C171.86 42.157 172.115 41.9516 172.4 41.8071C172.693 41.6549 173.003 41.5788 173.331 41.5788C173.791 41.5788 174.177 41.6929 174.491 41.9212C174.811 42.1494 175.052 42.4118 175.212 42.7085H175.264V41.7614H175.912V47.1701C175.912 47.6418 175.846 48.0526 175.714 48.4025C175.588 48.76 175.411 49.0567 175.181 49.2925C174.958 49.5284 174.693 49.7033 174.386 49.8174C174.08 49.9391 173.752 50 173.404 50ZM173.425 46.8734C173.662 46.8734 173.892 46.824 174.115 46.7251C174.345 46.6186 174.543 46.4665 174.71 46.2687C174.885 46.0709 175.024 45.8313 175.129 45.5498C175.233 45.2607 175.285 44.9298 175.285 44.5571C175.285 44.1843 175.233 43.8572 175.129 43.5757C175.024 43.2867 174.885 43.0432 174.71 42.8454C174.543 42.6476 174.345 42.4993 174.115 42.4004C173.892 42.2939 173.662 42.2407 173.425 42.2407C173.188 42.2407 172.958 42.2939 172.735 42.4004C172.519 42.5069 172.324 42.6591 172.149 42.8568C171.982 43.0546 171.846 43.2981 171.742 43.5871C171.637 43.8686 171.585 44.1919 171.585 44.5571C171.585 44.9146 171.637 45.2379 171.742 45.527C171.846 45.816 171.982 46.0595 172.149 46.2573C172.324 46.455 172.519 46.6072 172.735 46.7137C172.958 46.8202 173.188 46.8734 173.425 46.8734Z" fill="white" fill-opacity="0.75"/>
<path d="M178.08 49.8174L179.261 46.9419L177.108 41.7614H177.85L179.585 46.0747H179.606L181.268 41.7614H182L178.77 49.8174H178.08Z" fill="white" fill-opacity="0.75"/>
<defs>
<linearGradient id="paint0_linear_38_140" x1="17.1915" y1="17.4437" x2="32.9193" y2="17.4437" gradientUnits="userSpaceOnUse">
<stop stop-color="#009CFF"/>
<stop offset="1" stop-color="#0162EA"/>
</linearGradient>
<linearGradient id="paint1_linear_38_140" x1="0" y1="17.4437" x2="15.7278" y2="17.4437" gradientUnits="userSpaceOnUse">
<stop stop-color="#016CEA"/>
<stop offset="1" stop-color="#009CFF"/>
</linearGradient>
<linearGradient id="paint2_linear_38_140" x1="16.4723" y1="8.78698" x2="16.4723" y2="-3.39714e-05" gradientUnits="userSpaceOnUse">
<stop stop-color="#00A4FF"/>
<stop offset="1" stop-color="#0163EA"/>
</linearGradient>
<clipPath id="clip0_38_140">
<rect width="32.9149" height="30.8476" fill="white"/>
</clipPath>
</defs>
</svg>
