<svg width="60" height="57" viewBox="0 0 60 57" fill="none" xmlns="http://www.w3.org/2000/svg">
<g clip-path="url(#clip0_38_107)">
<path d="M30.3123 38.8352L17.0513 16.2857L51.8066 2.86328L58.835 5.66762L58.0454 11.1874L30.3123 38.8352Z" fill="white"/>
<path d="M19.4578 15.5682H40.6048L59.0615 4.83362L51.8665 0.690452C50.3024 -0.188403 48.4254 -0.188403 46.8613 0.690452L30.0313 10.4206L13.1387 0.690452C11.5746 -0.188403 9.6976 -0.188403 8.13347 0.690452L0.938477 4.83362L19.4578 15.5682Z" fill="#001F56"/>
<path d="M41.7935 17.0121L30.9697 35.8447L30.9697 57L38.1647 52.8568C39.7289 51.978 40.6673 50.283 40.6673 48.5253V28.9394L57.5599 19.1465C59.1241 18.2676 60.0625 16.5727 60.0625 14.815V6.46585L41.7935 17.0121Z" fill="#001F56"/>
<path d="M29.0928 57L29.0928 35.8447L18.269 17.0121L0 6.46585L0 14.815C0 16.6355 0.938478 18.2676 2.50261 19.1465L19.3952 28.9394L19.3952 48.5253C19.3952 50.3458 20.3337 51.978 21.8978 52.8568L29.0928 57Z" fill="#001F56"/>
</g>
<defs>
<clipPath id="clip0_38_107">
<rect width="60" height="57" fill="white"/>
</clipPath>
</defs>
</svg>
