<svg width="379" height="379" viewBox="0 0 379 379" fill="none" xmlns="http://www.w3.org/2000/svg">
<path d="M118.21 136.439L-1.86006 67.0659L-2 67.2759V133.149C-2 142.109 2.75802 150.37 10.5248 154.78L115.061 215.193V327.268C115.061 334.478 118.91 341.058 125.137 344.629L181.464 379V253.764L118.21 136.439Z" fill="#EBF2F8"/>
<path d="M381.86 67.0659L261.58 136.509H261.09L198.536 252.574V379L254.863 344.629C261.09 341.058 264.938 334.408 264.938 327.268V215.193L369.475 154.78C377.242 150.3 382 142.039 382 133.149V67.2759L381.86 67.0659Z" fill="url(#paint0_linear_207_470)"/>
<path d="M254.024 122.298L377.032 55.3048L319.586 22.8934C313.569 19.2532 306.152 19.0432 299.924 22.2633L190 79.806L80.9857 25.4135C73.7787 21.8433 65.3122 21.9133 58.1752 25.6935L3.24805 54.6048L121.149 122.298H254.024Z" fill="#EBF2F8"/>
<path d="M254.024 122.298L377.032 55.3048L319.586 22.8934C313.569 19.2532 306.152 19.0432 299.924 22.2633L190 79.806L80.9857 25.4135C73.7787 21.8433 65.3122 21.9133 58.1752 25.6935L3.24805 54.6048L121.149 122.298H254.024Z" fill="url(#paint1_linear_207_470)"/>
<path d="M190 109.71L198.66 101.05L190 92.3896L181.34 101.05L190 109.71ZM191.5 101.05L191.5 -0.000145024L188.5 -0.000144893L188.5 101.05L191.5 101.05Z" fill="#AEE4FB"/>
<path d="M246.379 196.519V208.769H258.623V196.519H246.379ZM251.441 203.705L338.441 290.748L340.561 288.626L253.561 201.583L251.441 203.705Z" fill="#AEE4FB"/>
<defs>
<linearGradient id="paint0_linear_207_470" x1="230.019" y1="192.747" x2="348.335" y2="311.005" gradientUnits="userSpaceOnUse">
<stop stop-color="#3FA3FF"/>
<stop offset="1" stop-color="#016CEA"/>
</linearGradient>
<linearGradient id="paint1_linear_207_470" x1="190.14" y1="19.9961" x2="190.14" y2="122.298" gradientUnits="userSpaceOnUse">
<stop stop-color="#00A3FF"/>
<stop offset="1" stop-color="#47D3FF"/>
</linearGradient>
</defs>
</svg>
