<svg width="182" height="33" viewBox="0 0 182 33" fill="none" xmlns="http://www.w3.org/2000/svg">
<g clip-path="url(#clip0_194_1131)">
<path d="M32.9149 4.03979L22.6044 10.0063H22.5631L17.1909 19.9919V30.8475L22.0259 27.9057C22.5631 27.595 22.8937 27.0356 22.8937 26.4141V16.76L31.8611 11.5808C32.5223 11.1871 32.9355 10.4828 32.9355 9.71624L32.9149 4.03979Z" fill="url(#paint0_linear_194_1131)"/>
<path d="M10.3104 10.0063L0 4.03979V4.06051V9.71624C0 10.4828 0.413244 11.1872 1.07443 11.5808L10.0418 16.76V26.3934C10.0418 27.0149 10.3724 27.5743 10.9096 27.885L15.7446 30.8268V20.0747L10.3104 10.0063Z" fill="url(#paint1_linear_194_1131)"/>
<path d="M21.9434 8.78396L32.4812 3.02464L27.5636 0.248569C27.047 -0.062185 26.4065 -0.082902 25.8693 0.207136L16.468 5.13777L7.10798 0.455739C6.48811 0.144985 5.76493 0.144985 5.14506 0.476456L0.434082 2.96249L10.5379 8.78396H21.9434Z" fill="url(#paint2_linear_194_1131)"/>
</g>
<path d="M45.0321 18.5091L38.8247 8.68596H42.9716L46.6548 14.7645H46.8608L50.4153 8.68596H54.6136L48.5093 18.5091V27.0498H45.0321V18.5091Z" fill="white"/>
<path d="M55.3266 17.6114H64.0581V20.5865H55.3266V17.6114Z" fill="white"/>
<path d="M67.3594 8.68596H73.5926C75.0522 8.68596 76.3657 8.90824 77.5334 9.3528C78.701 9.79736 79.697 10.43 80.5212 11.2507C81.3454 12.0544 81.9722 13.0204 82.4014 14.1489C82.8479 15.2774 83.0711 16.5171 83.0711 17.8679C83.0711 19.2357 82.8479 20.4839 82.4014 21.6124C81.9722 22.7409 81.3454 23.707 80.5212 24.5106C79.697 25.3143 78.701 25.9384 77.5334 26.3829C76.3657 26.8275 75.0522 27.0498 73.5926 27.0498H67.3594V8.68596ZM73.4381 23.7669C74.4512 23.7669 75.3441 23.6301 76.1168 23.3565C76.8895 23.0658 77.5334 22.664 78.0485 22.151C78.5637 21.6381 78.95 21.0225 79.2076 20.3044C79.4652 19.5692 79.5939 18.757 79.5939 17.8679C79.5939 16.9787 79.4652 16.1751 79.2076 15.457C78.95 14.7217 78.5637 14.0976 78.0485 13.5847C77.5334 13.0717 76.8895 12.6785 76.1168 12.4049C75.3441 12.1142 74.4512 11.9689 73.4381 11.9689H70.8366V23.7669H73.4381Z" fill="white"/>
<path d="M87.3403 12.6614C87.0484 12.6614 86.7651 12.6101 86.4903 12.5075C86.2328 12.3878 86.0009 12.2339 85.7949 12.0458C85.606 11.8406 85.4515 11.6098 85.3313 11.3533C85.2282 11.0969 85.1767 10.8147 85.1767 10.507C85.1767 10.1992 85.2282 9.91705 85.3313 9.66058C85.4515 9.4041 85.606 9.18182 85.7949 8.99373C86.0009 8.78855 86.2328 8.63466 86.4903 8.53207C86.7651 8.41238 87.0484 8.35254 87.3403 8.35254C87.9413 8.35254 88.4564 8.56627 88.8857 8.99373C89.315 9.4041 89.5296 9.9085 89.5296 10.507C89.5296 11.1054 89.315 11.6184 88.8857 12.0458C88.4564 12.4562 87.9413 12.6614 87.3403 12.6614ZM85.6661 27.0498V14.4824H89.0403V27.0498H85.6661Z" fill="white"/>
<path d="M97.8209 33C96.928 33 96.1296 32.8804 95.4255 32.641C94.7387 32.4187 94.1377 32.1195 93.6226 31.7433C93.1074 31.3842 92.6781 30.9824 92.3347 30.5379C91.9913 30.0933 91.7423 29.6487 91.5878 29.2042L94.8074 27.9218C95.0478 28.5886 95.4427 29.1016 95.9922 29.4607C96.5417 29.8368 97.1512 30.0249 97.8209 30.0249C98.8855 30.0249 99.7269 29.6915 100.345 29.0246C100.963 28.3749 101.272 27.4601 101.272 26.2803V25.4083H101.066C100.671 25.9555 100.148 26.3915 99.4951 26.7163C98.8598 27.0241 98.1042 27.178 97.2285 27.178C96.473 27.178 95.7346 27.0241 95.0134 26.7163C94.3094 26.4086 93.6826 25.9726 93.1332 25.4083C92.5837 24.827 92.1372 24.1345 91.7938 23.3308C91.4504 22.5272 91.2787 21.6295 91.2787 20.6378C91.2787 19.6461 91.4504 18.7484 91.7938 17.9448C92.1372 17.1241 92.5837 16.4316 93.1332 15.8673C93.6826 15.286 94.3094 14.8414 95.0134 14.5337C95.7346 14.2259 96.473 14.072 97.2285 14.072C98.1042 14.072 98.8598 14.2344 99.4951 14.5593C100.148 14.8671 100.671 15.2945 101.066 15.8417H101.272V14.4824H104.492V26.1521C104.492 27.2122 104.329 28.1612 104.003 28.999C103.676 29.8539 103.221 30.5721 102.637 31.1534C102.054 31.7519 101.35 32.205 100.525 32.5127C99.7183 32.8376 98.8168 33 97.8209 33ZM97.9497 24.1516C98.3618 24.1516 98.7653 24.0746 99.1603 23.9207C99.5724 23.7669 99.933 23.5446 100.242 23.2539C100.551 22.9461 100.8 22.5785 100.989 22.151C101.178 21.7065 101.272 21.2021 101.272 20.6378C101.272 20.0736 101.178 19.5692 100.989 19.1246C100.8 18.68 100.551 18.3124 100.242 18.0218C99.933 17.714 99.5724 17.4831 99.1603 17.3293C98.7653 17.1754 98.3618 17.0984 97.9497 17.0984C97.5376 17.0984 97.1341 17.1754 96.7391 17.3293C96.3442 17.4831 95.9922 17.714 95.6831 18.0218C95.374 18.3295 95.125 18.7057 94.9361 19.1503C94.7473 19.5777 94.6528 20.0736 94.6528 20.6378C94.6528 21.2021 94.7473 21.7065 94.9361 22.151C95.125 22.5785 95.374 22.9461 95.6831 23.2539C95.9922 23.5446 96.3442 23.7669 96.7391 23.9207C97.1341 24.0746 97.5376 24.1516 97.9497 24.1516Z" fill="white"/>
<path d="M109.249 12.6614C108.957 12.6614 108.673 12.6101 108.399 12.5075C108.141 12.3878 107.909 12.2339 107.703 12.0458C107.514 11.8406 107.36 11.6098 107.24 11.3533C107.137 11.0969 107.085 10.8147 107.085 10.507C107.085 10.1992 107.137 9.91705 107.24 9.66058C107.36 9.4041 107.514 9.18182 107.703 8.99373C107.909 8.78855 108.141 8.63466 108.399 8.53207C108.673 8.41238 108.957 8.35254 109.249 8.35254C109.85 8.35254 110.365 8.56627 110.794 8.99373C111.223 9.4041 111.438 9.9085 111.438 10.507C111.438 11.1054 111.223 11.6184 110.794 12.0458C110.365 12.4562 109.85 12.6614 109.249 12.6614ZM107.574 27.0498V14.4824H110.949V27.0498H107.574Z" fill="white"/>
<path d="M115.299 17.3549H113.084V14.4824H115.299V10.6352H118.673V14.4824H121.764V17.3549H118.673V22.228C118.673 22.5187 118.699 22.7922 118.751 23.0487C118.819 23.2881 118.939 23.4933 119.111 23.6643C119.352 23.9378 119.695 24.0746 120.141 24.0746C120.433 24.0746 120.665 24.049 120.837 23.9977C121.009 23.9293 121.172 23.8438 121.326 23.7412L122.279 26.6907C121.884 26.8788 121.455 27.0156 120.991 27.1011C120.545 27.2037 120.047 27.2549 119.497 27.2549C118.862 27.2549 118.287 27.1609 117.772 26.9728C117.274 26.7676 116.853 26.4941 116.51 26.1521C115.703 25.3827 115.299 24.2884 115.299 22.8692V17.3549Z" fill="white"/>
<path d="M131.773 25.7161H131.567C131.172 26.1948 130.691 26.6052 130.125 26.9472C129.575 27.2891 128.863 27.4601 127.987 27.4601C127.334 27.4601 126.716 27.349 126.132 27.1267C125.566 26.9215 125.068 26.6309 124.639 26.2547C124.209 25.8785 123.874 25.4254 123.634 24.8954C123.394 24.3653 123.273 23.7839 123.273 23.1513C123.273 22.5016 123.402 21.9202 123.66 21.4073C123.917 20.8772 124.278 20.4241 124.742 20.0479C125.205 19.6718 125.746 19.3896 126.364 19.2015C127 18.9964 127.686 18.8938 128.425 18.8938C129.249 18.8938 129.927 18.9622 130.46 19.099C130.992 19.2186 131.43 19.3469 131.773 19.4837V19.099C131.773 18.4321 131.507 17.885 130.975 17.4575C130.442 17.0129 129.781 16.7907 128.992 16.7907C127.824 16.7907 126.837 17.278 126.029 18.2526L123.583 16.5855C124.922 14.9098 126.751 14.072 129.069 14.072C131.026 14.072 132.52 14.5337 133.55 15.457C134.581 16.3632 135.096 17.714 135.096 19.5093V27.0498H131.773V25.7161ZM131.773 21.9459C131.378 21.7578 130.966 21.6124 130.537 21.5098C130.125 21.3902 129.67 21.3303 129.172 21.3303C128.365 21.3303 127.738 21.5098 127.292 21.8689C126.862 22.2109 126.648 22.6383 126.648 23.1513C126.648 23.6643 126.854 24.0746 127.266 24.3824C127.695 24.6902 128.184 24.8441 128.734 24.8441C129.18 24.8441 129.592 24.7671 129.97 24.6132C130.348 24.4422 130.666 24.2285 130.923 23.972C131.198 23.6985 131.404 23.3907 131.541 23.0487C131.696 22.6896 131.773 22.322 131.773 21.9459Z" fill="white"/>
<path d="M137.779 27.0498V8.68596H141.153V27.0498H137.779Z" fill="white"/>
<path d="M146.316 27.1364C145.968 27.1364 145.669 27.0161 145.418 26.7757C145.176 26.5256 145.056 26.2275 145.056 25.8812C145.056 25.535 145.176 25.2416 145.418 25.0012C145.669 24.7607 145.968 24.6405 146.316 24.6405C146.664 24.6405 146.958 24.7607 147.2 25.0012C147.441 25.2416 147.562 25.535 147.562 25.8812C147.562 26.2275 147.441 26.5256 147.2 26.7757C146.958 27.0161 146.664 27.1364 146.316 27.1364Z" fill="#00A3FF"/>
<path d="M149.978 21.5964H148.732V19.9806H149.978V17.8165H151.876V19.9806H153.615V21.5964H151.876V24.3375C151.876 24.501 151.891 24.6549 151.92 24.7991C151.958 24.9338 152.026 25.0492 152.123 25.1454C152.258 25.2993 152.451 25.3762 152.702 25.3762C152.866 25.3762 152.997 25.3618 153.093 25.3329C153.19 25.2945 153.282 25.2464 153.369 25.1887L153.905 26.8478C153.683 26.9535 153.441 27.0305 153.18 27.0786C152.929 27.1363 152.649 27.1651 152.34 27.1651C151.983 27.1651 151.659 27.1122 151.369 27.0064C151.089 26.891 150.853 26.7371 150.659 26.5448C150.205 26.112 149.978 25.4964 149.978 24.6981V21.5964Z" fill="white"/>
<path d="M161.663 25.3474C161.335 25.9244 160.89 26.3909 160.33 26.7468C159.779 27.1026 159.103 27.2806 158.302 27.2806C157.761 27.2806 157.259 27.1892 156.795 27.0064C156.341 26.8141 155.945 26.5496 155.607 26.213C155.269 25.8763 155.003 25.482 154.81 25.03C154.626 24.5683 154.535 24.0634 154.535 23.5151C154.535 23.0054 154.626 22.5245 154.81 22.0725C154.994 21.6108 155.249 21.2117 155.578 20.875C155.906 20.5288 156.293 20.2547 156.737 20.0527C157.191 19.8507 157.688 19.7497 158.229 19.7497C158.799 19.7497 159.306 19.8459 159.75 20.0383C160.195 20.221 160.567 20.4807 160.866 20.8173C161.165 21.1443 161.392 21.5339 161.547 21.9859C161.702 22.4379 161.779 22.9285 161.779 23.4574C161.779 23.5248 161.779 23.5825 161.779 23.6306C161.769 23.6883 161.764 23.7412 161.764 23.7893C161.755 23.8373 161.75 23.8902 161.75 23.9479H156.404C156.442 24.2365 156.52 24.4866 156.636 24.6981C156.761 24.9001 156.911 25.0732 157.085 25.2175C157.268 25.3522 157.466 25.4532 157.679 25.5205C157.891 25.5782 158.108 25.607 158.331 25.607C158.765 25.607 159.123 25.5109 159.403 25.3185C159.693 25.1165 159.92 24.8665 160.084 24.5683L161.663 25.3474ZM159.939 22.6062C159.929 22.4812 159.886 22.3418 159.808 22.1879C159.741 22.034 159.635 21.8897 159.49 21.7551C159.354 21.6204 159.181 21.5098 158.968 21.4232C158.765 21.3367 158.519 21.2934 158.229 21.2934C157.824 21.2934 157.466 21.4088 157.157 21.6396C156.848 21.8705 156.631 22.1927 156.505 22.6062H159.939Z" fill="white"/>
<path d="M167.437 26.2995H167.321C167.099 26.5688 166.829 26.7997 166.51 26.992C166.201 27.1844 165.8 27.2806 165.307 27.2806C164.94 27.2806 164.593 27.218 164.264 27.093C163.946 26.9776 163.665 26.8141 163.424 26.6025C163.182 26.3909 162.994 26.136 162.859 25.8379C162.724 25.5397 162.656 25.2127 162.656 24.8568C162.656 24.4914 162.728 24.1644 162.873 23.8758C163.018 23.5777 163.221 23.3228 163.482 23.1112C163.743 22.8996 164.047 22.7409 164.395 22.6351C164.752 22.5197 165.138 22.462 165.554 22.462C166.017 22.462 166.399 22.5005 166.698 22.5774C166.998 22.6447 167.244 22.7169 167.437 22.7938V22.5774C167.437 22.2023 167.287 21.8945 166.988 21.6541C166.689 21.404 166.317 21.279 165.872 21.279C165.216 21.279 164.66 21.5531 164.206 22.1013L162.83 21.1636C163.583 20.221 164.612 19.7497 165.916 19.7497C167.017 19.7497 167.857 20.0094 168.437 20.5288C169.016 21.0385 169.306 21.7983 169.306 22.8082V27.0497H167.437V26.2995ZM167.437 24.1788C167.215 24.073 166.983 23.9912 166.742 23.9335C166.51 23.8662 166.254 23.8325 165.974 23.8325C165.52 23.8325 165.167 23.9335 164.916 24.1355C164.675 24.3279 164.554 24.5683 164.554 24.8568C164.554 25.1454 164.67 25.3762 164.902 25.5493C165.143 25.7225 165.418 25.809 165.728 25.809C165.979 25.809 166.21 25.7657 166.423 25.6792C166.635 25.583 166.814 25.4628 166.959 25.3185C167.114 25.1646 167.229 24.9915 167.307 24.7991C167.394 24.5972 167.437 24.3904 167.437 24.1788Z" fill="white"/>
<path d="M170.815 19.9806H172.597V20.9039H172.713C172.935 20.5576 173.235 20.2787 173.611 20.0671C173.998 19.8555 174.423 19.7497 174.886 19.7497C175.427 19.7497 175.881 19.8748 176.248 20.1248C176.615 20.3749 176.876 20.6827 177.031 21.0481C177.253 20.6923 177.567 20.3893 177.972 20.1393C178.378 19.8796 178.871 19.7497 179.45 19.7497C179.885 19.7497 180.261 19.8219 180.58 19.9661C180.899 20.1008 181.16 20.2931 181.363 20.5432C181.575 20.7933 181.734 21.0962 181.841 21.4521C181.947 21.7983 182 22.1783 182 22.5918V27.0497H180.102V22.9381C180.102 21.9763 179.706 21.4954 178.914 21.4954C178.663 21.4954 178.441 21.5531 178.248 21.6685C178.054 21.7743 177.89 21.9234 177.755 22.1157C177.629 22.2985 177.528 22.5197 177.451 22.7794C177.383 23.0391 177.349 23.318 177.349 23.6161V27.0497H175.451V22.9381C175.451 21.9763 175.036 21.4954 174.205 21.4954C173.964 21.4954 173.751 21.5531 173.568 21.6685C173.384 21.7743 173.23 21.9234 173.104 22.1157C172.979 22.2985 172.882 22.5197 172.815 22.7794C172.747 23.0391 172.713 23.318 172.713 23.6161V27.0497H170.815V19.9806Z" fill="white"/>
<defs>
<linearGradient id="paint0_linear_194_1131" x1="17.1915" y1="17.444" x2="32.9193" y2="17.444" gradientUnits="userSpaceOnUse">
<stop stop-color="#009CFF"/>
<stop offset="1" stop-color="#0162EA"/>
</linearGradient>
<linearGradient id="paint1_linear_194_1131" x1="0" y1="17.444" x2="15.7278" y2="17.444" gradientUnits="userSpaceOnUse">
<stop stop-color="#016CEA"/>
<stop offset="1" stop-color="#009CFF"/>
</linearGradient>
<linearGradient id="paint2_linear_194_1131" x1="16.4723" y1="8.78698" x2="16.4723" y2="-3.39714e-05" gradientUnits="userSpaceOnUse">
<stop stop-color="#00A4FF"/>
<stop offset="1" stop-color="#0163EA"/>
</linearGradient>
<clipPath id="clip0_194_1131">
<rect width="32.9149" height="30.8476" fill="white"/>
</clipPath>
</defs>
</svg>
