<svg width="379" height="360" viewBox="0 0 379 360" fill="none" xmlns="http://www.w3.org/2000/svg">
<path d="M118.21 117.439L-1.86006 48.0659L-2 48.2759V114.149C-2 123.109 2.75802 131.37 10.5248 135.78L115.061 196.193V308.268C115.061 315.478 118.91 322.058 125.137 325.629L181.464 360V234.764L118.21 117.439Z" fill="#EBF2F8"/>
<path d="M381.86 48.0659L261.58 117.509H261.09L198.536 233.574V360L254.863 325.629C261.09 322.058 264.938 315.408 264.938 308.268V196.193L369.475 135.78C377.242 131.3 382 123.039 382 114.149V48.2759L381.86 48.0659Z" fill="#EBF2F8"/>
<path d="M254.024 103.298L377.032 36.3048L319.586 3.89337C313.569 0.253203 306.152 0.0431927 299.924 3.26334L190 60.806L80.9857 6.41348C73.7787 2.84332 65.3122 2.91332 58.1752 6.6935L3.24805 35.6048L121.149 103.298H254.024Z" fill="#EBF2F8"/>
<path d="M254.024 103.298L377.032 36.3048L319.586 3.89337C313.569 0.253203 306.152 0.0431927 299.924 3.26334L190 60.806L80.9857 6.41348C73.7787 2.84332 65.3122 2.91332 58.1752 6.6935L3.24805 35.6048L121.149 103.298H254.024Z" fill="#EBF2F8"/>
</svg>
